<svg xmlns="http://www.w3.org/2000/svg" viewBox="0 0 199.51 42.61"><title>Synchrony logo</title><path d="M432.57,533.31h-8.23V490.69h8.22c0,.93,0,41.49,0,42.61M420.47,512h-8.22V533.3h8.22Zm24.21-21.3h-8.22c0,.94,0,20.64,0,21.3h8.22Z" transform="translate(-412.24 -490.69)" style="fill:#f9c20a"/><path d="M504.44,509.95v11.47H501.8v-11.5c0-3.49-1.42-5.11-4.48-5.11a5.27,5.27,0,0,0-5.55,5.35v11.27h-2.64V502.56h2.64v2.06a8,8,0,0,1,5.71-2.32c4.49,0,7,2.72,7,7.65m31.24-7.65a8,8,0,0,0-5.71,2.32V494.27h-2.64v27.14H530V510.15a5.27,5.27,0,0,1,5.55-5.35c3.06,0,4.48,1.62,4.48,5.11v11.5h2.64V509.95c0-4.93-2.47-7.65-7-7.65m39.21,9.55v.26c0,5.46-3.89,9.58-9,9.58s-9-4.19-9-9.54v-.27c0-5.44,3.9-9.54,9.08-9.54s9,4,9,9.51m-2.67.26v-.26c0-4.14-2.59-7-6.31-7s-6.41,3-6.41,7.07v.27c0,4.08,2.68,7,6.37,7s6.34-2.91,6.34-7.07m14-9.81a8,8,0,0,0-5.71,2.32v-2.06h-2.64v18.85h2.64V510.15A5.27,5.27,0,0,1,586,504.8c3.06,0,4.48,1.62,4.48,5.11v11.5h2.64V509.95c0-4.93-2.47-7.65-7-7.65m-70.13,16.88c-3.69,0-6.37-3-6.37-7v-.27c0-4.1,2.7-7.07,6.41-7.07a6,6,0,0,1,5.62,3.63h2.83a8.67,8.67,0,0,0-8.45-6.1c-5.18,0-9.08,4.1-9.08,9.54v.27c0,5.35,4,9.54,9,9.54a8.92,8.92,0,0,0,8.79-7.2H522.1a6.1,6.1,0,0,1-6,4.7m38.76-16.88a8,8,0,0,0-5.71,2.32v-2.06h-2.64v18.85h2.64V510.15a5.27,5.27,0,0,1,5.54-5.35,6,6,0,0,1,1.85.26v-2.62a9.45,9.45,0,0,0-1.68-.15m-92.78,8.2c-4.2-.69-4.93-1.44-4.93-3s1.7-2.73,4.15-2.73,4,.93,4.41,2.93l0,.11h2.76l-.06-.37c-.56-3.32-3.08-5.15-7.09-5.15s-6.89,2.19-6.89,5.2c0,3.95,3.34,4.83,7.06,5.45,3.51.61,4.58,1.1,4.58,3.17,0,1.91-1.72,3.09-4.4,3.09-3.66,0-4.78-1.93-5.07-3.62h-2.81c.34,3.76,3.36,6.09,7.88,6.09,4.23,0,7.18-2.32,7.18-5.63,0-4.09-3.21-5-6.78-5.59m147-7.94-5.72,15.49-6.68-15.49h-2.74l8,18.76-2.49,7.37h2.77l9.59-26.13Zm-124.87,0-5.72,15.49-6.68-15.49h-2.74l8,18.76-2.49,7.37h2.77l9.59-26.13Z" transform="translate(-412.24 -490.69)" style="fill:#343741"/></svg>