<?xml version="1.0" encoding="UTF-8" standalone="no"?>
<!-- Created with Inkscape (http://www.inkscape.org/) -->
<svg
   xmlns:svg="http://www.w3.org/2000/svg"
   xmlns="http://www.w3.org/2000/svg"
   version="1.0"
   width="977.78534"
   height="270.94128"
   id="svg4469">
  <defs
     id="defs4471" />
  <g
     transform="translate(116.00843,-323.25574)"
     id="layer1">
    <path
       d="M -63.145058,478.2405 C 172.55971,379.78273 638.82009,421.49097 808.91354,478.2405 C 574.68848,436.08951 244.57155,416.93104 -63.145058,478.2405 z"
       id="path4518"
       style="fill:#688a22;fill-opacity:1;fill-rule:evenodd;stroke:#000000;stroke-width:0;stroke-linecap:butt;stroke-linejoin:miter;stroke-miterlimit:4;stroke-dasharray:none;stroke-opacity:1" />
    <rect
       width="197.29707"
       height="164.98117"
       ry="45.922588"
       x="275.40875"
       y="337.90402"
       id="rect4514"
       style="opacity:1;fill:#658a2d;fill-opacity:1;stroke:#a90000;stroke-width:0;stroke-linejoin:miter;stroke-miterlimit:4;stroke-dasharray:none;stroke-opacity:1" />
    <path
       d="M 275.40875,337.90402 L 426.86328,337.93935 L 472.70584,412.99183 L 472.70584,502.88518 L 314.8659,502.40734 L 275.40875,438.5242 L 275.40875,337.90402 z"
       id="path4516"
       style="fill:#658a2d;fill-opacity:1;stroke:#a90000;stroke-width:0;stroke-linejoin:miter;stroke-miterlimit:4;stroke-opacity:1" />
    <rect
       width="178.82126"
       height="149.53157"
       ry="41.622185"
       x="284.64667"
       y="345.62881"
       id="rect4510"
       style="opacity:1;fill:#ffffff;fill-opacity:1;stroke:#a90000;stroke-width:0;stroke-linejoin:miter;stroke-miterlimit:4;stroke-dasharray:none;stroke-opacity:1" />
    <path
       d="M -36.865563,575.42624 C -36.865586,576.38496 -36.713788,577.04009 -36.41017,577.39162 C -36.106598,577.74315 -35.443483,578.03077 -34.420823,578.25447 L -34.420823,579.54874 L -50.623213,579.54874 L -50.623213,578.25447 C -49.600593,577.99881 -48.937478,577.68723 -48.63387,577.31972 C -48.330286,576.95221 -48.178489,576.32105 -48.178477,575.42624 L -48.178477,532.13996 C -48.178489,531.18129 -48.338275,530.51818 -48.657838,530.15062 C -48.977425,529.78316 -49.632549,529.48755 -50.623213,529.2638 L -50.623213,528.01746 L -4.3649016,528.01746 C -3.3742788,528.01751 -2.7111637,527.85773 -2.3755543,527.5381 C -2.0400591,527.21857 -1.7604325,526.56345 -1.5366728,525.57272 L -0.24239906,525.57272 L -0.24239906,539.57005 L -1.5366728,539.57005 C -1.728475,538.64333 -2.0001122,538.02016 -2.3515862,537.70055 C -2.7031743,537.38102 -3.2464496,537.22123 -3.981413,537.22119 L -4.3649016,537.22119 L -36.865563,537.22119 L -36.865563,548.5341 L -16.157177,548.5341 C -15.134585,548.53414 -14.463481,548.39032 -14.143862,548.10268 C -13.824334,547.81509 -13.536717,547.17595 -13.281012,546.18523 L -12.034675,546.18523 L -12.034675,559.22385 L -13.281012,559.22385 C -13.472803,558.2971 -13.752429,557.67393 -14.119894,557.35434 C -14.487448,557.03479 -15.166542,556.87501 -16.157177,556.87498 L -36.865563,556.87498 L -36.865563,575.42624 z M 24.348812,575.42624 C 24.348792,576.35301 24.516568,577.00813 24.852141,577.39162 C 25.187672,577.77512 25.834808,578.06273 26.793552,578.25447 L 26.793552,579.54874 L 11.78956,579.54874 L 11.78956,578.25447 C 12.716315,578.06273 13.339483,577.7831 13.659066,577.41559 C 13.97863,577.04808 14.138417,576.38496 14.138428,575.42624 L 14.138428,541.34369 C 14.138417,540.38501 13.97863,539.7219 13.659066,539.35435 C 13.339483,538.98688 12.716315,538.70725 11.78956,538.51546 L 11.78956,537.22119 L 26.793552,537.22119 L 26.793552,538.51546 C 25.834808,538.70725 25.187672,538.99486 24.852141,539.37831 C 24.516568,539.76184 24.348792,540.41697 24.348812,541.34369 L 24.348812,575.42624 z M 81.057194,537.22119 C 82.111741,537.22123 82.790835,537.07743 83.094478,536.78976 C 83.398024,536.50219 83.661672,535.895 83.885423,534.9682 L 85.179698,534.9682 L 85.179698,548.15061 L 83.885423,548.15061 C 83.69363,547.19192 83.414003,546.55277 83.046541,546.23317 C 82.678983,545.91363 82.015868,545.75384 81.057194,545.75381 L 55.027904,545.75381 L 55.027904,554.2385 L 71.038554,554.2385 C 72.061153,554.23852 72.732258,554.08672 73.05187,553.7831 C 73.371405,553.47954 73.643042,552.84838 73.866783,551.88962 L 75.161057,551.84169 L 75.161057,563.92158 L 73.866783,563.92158 C 73.675,562.99484 73.395373,562.37167 73.027902,562.05208 C 72.660353,561.73252 71.997238,561.57273 71.038554,561.57271 L 55.027904,561.57271 L 55.027904,575.42624 C 55.027884,576.35301 55.19566,577.00813 55.531233,577.39162 C 55.866764,577.77512 56.513901,578.06273 57.472644,578.25447 L 57.472644,579.54874 L 42.468652,579.54874 L 42.468652,578.25447 C 43.427364,578.06273 44.074501,577.77512 44.410063,577.39162 C 44.745605,577.00813 44.913381,576.35301 44.913392,575.42624 L 44.913392,541.34369 C 44.913381,540.41697 44.745605,539.76184 44.410063,539.37831 C 44.074501,538.99486 43.427364,538.70725 42.468652,538.51546 L 42.468652,537.22119 L 81.057194,537.22119 z M 100.27956,545.65794 C 99.320831,545.65797 98.665705,545.80977 98.314181,546.11333 C 97.962643,546.41696 97.659049,547.06409 97.403396,548.05474 L 96.157058,548.05474 L 96.157058,534.87232 L 97.451332,534.87232 C 97.64307,535.83108 97.922697,536.46224 98.290213,536.7658 C 98.657716,537.06944 99.320831,537.22123 100.27956,537.22119 L 135.22496,537.22119 C 136.24756,537.22123 136.94263,537.06144 137.31019,536.74182 C 137.67765,536.42229 137.97325,535.79913 138.197,534.87232 L 139.49127,534.87232 L 139.49127,548.05474 L 138.197,548.05474 C 138.00521,547.12801 137.71759,546.49685 137.33415,546.16127 C 136.95062,545.82575 136.24756,545.65797 135.22496,545.65794 L 122.95333,545.65794 L 122.95333,575.42624 C 122.95329,576.38496 123.11308,577.04808 123.43269,577.41559 C 123.75223,577.7831 124.39137,578.06273 125.35013,578.25447 L 125.35013,579.54874 L 110.2982,579.54874 L 110.2982,578.25447 C 111.2569,578.06273 111.88806,577.7831 112.19168,577.41559 C 112.49525,577.04808 112.64705,576.38496 112.64707,575.42624 L 112.64707,545.65794 L 100.27956,545.65794 z M 164.70565,575.42624 C 164.70563,576.35301 164.8734,577.00813 165.20898,577.39162 C 165.54451,577.77512 166.19164,578.06273 167.15039,578.25447 L 167.15039,579.54874 L 152.1464,579.54874 L 152.1464,578.25447 C 153.07315,578.06273 153.69632,577.7831 154.01591,577.41559 C 154.33547,577.04808 154.49525,576.38496 154.49527,575.42624 L 154.49527,541.34369 C 154.49525,540.38501 154.33547,539.7219 154.01591,539.35435 C 153.69632,538.98688 153.07315,538.70725 152.1464,538.51546 L 152.1464,537.22119 L 167.15039,537.22119 L 167.15039,538.51546 C 166.19164,538.70725 165.54451,538.99486 165.20898,539.37831 C 164.8734,539.76184 164.70563,540.41697 164.70565,541.34369 L 164.70565,552.75247 L 188.38607,552.75247 L 188.38607,541.34369 C 188.38603,540.41697 188.21825,539.76184 187.88274,539.37831 C 187.54715,538.99486 186.88404,538.70725 185.8934,538.51546 L 185.8934,537.22119 L 200.94532,537.22119 L 200.94532,538.51546 C 199.98655,538.70725 199.35539,538.98688 199.05185,539.35435 C 198.7482,539.7219 198.5964,540.38501 198.59645,541.34369 L 198.59645,575.42624 C 198.5964,576.38496 198.7482,577.04808 199.05185,577.41559 C 199.35539,577.7831 199.98655,578.06273 200.94532,578.25447 L 200.94532,579.54874 L 185.8934,579.54874 L 185.8934,578.25447 C 186.88404,578.06273 187.54715,577.77512 187.88274,577.39162 C 188.21825,577.00813 188.38603,576.35301 188.38607,575.42624 L 188.38607,561.09335 L 164.70565,561.09335 L 164.70565,575.42624 z M 247.92268,537.12532 C 246.932,537.12536 246.26889,537.27715 245.93334,537.58071 C 245.59778,537.88435 245.31815,538.51551 245.09446,539.47419 L 243.80019,539.47419 L 243.80019,525.57272 L 245.04652,525.57272 C 245.27022,526.5315 245.57382,527.17863 245.95731,527.51413 C 246.34079,527.84973 246.99591,528.01751 247.92268,528.01746 L 291.11309,528.01746 C 292.10372,528.01751 292.76683,527.85773 293.10244,527.5381 C 293.43794,527.21857 293.71757,526.56345 293.94132,525.57272 L 295.2356,525.57272 L 295.2356,539.57005 L 293.94132,539.57005 C 293.74952,538.61137 293.4619,537.96424 293.07847,537.62865 C 292.69493,537.29313 292.03981,537.12536 291.11309,537.12532 L 275.10244,537.12532 L 275.10244,575.42624 C 275.10241,576.41692 275.2542,577.08004 275.55784,577.41559 C 275.8614,577.75114 276.49256,578.03077 277.45131,578.25447 L 277.45131,579.54874 L 261.4886,579.54874 L 261.4886,578.25447 C 262.4473,577.99881 263.07846,577.68723 263.38208,577.31972 C 263.68564,576.95221 263.86939,576.30507 263.93334,575.37831 L 263.93334,537.12532 L 247.92268,537.12532 z M 320.01855,575.42624 C 320.01853,576.35301 320.18631,577.00813 320.52188,577.39162 C 320.85741,577.77512 321.50455,578.06273 322.46329,578.25447 L 322.46329,579.54874 L 307.4593,579.54874 L 307.4593,578.25447 C 308.38606,578.06273 309.00923,577.7831 309.3288,577.41559 C 309.64837,577.04808 309.80816,576.38496 309.80816,575.42624 L 309.80816,541.34369 C 309.80816,540.38501 309.64837,539.7219 309.3288,539.35435 C 309.00923,538.98688 308.38606,538.70725 307.4593,538.51546 L 307.4593,537.22119 L 322.46329,537.22119 L 322.46329,538.51546 C 321.50455,538.70725 320.85741,538.99486 320.52188,539.37831 C 320.18631,539.76184 320.01853,540.41697 320.01855,541.34369 L 320.01855,552.75247 L 343.69898,552.75247 L 343.69898,541.34369 C 343.69893,540.41697 343.53115,539.76184 343.19565,539.37831 C 342.86005,538.99486 342.19693,538.70725 341.20629,538.51546 L 341.20629,537.22119 L 356.25823,537.22119 L 356.25823,538.51546 C 355.29945,538.70725 354.66829,538.98688 354.36475,539.35435 C 354.0611,539.7219 353.90931,540.38501 353.90936,541.34369 L 353.90936,575.42624 C 353.90931,576.38496 354.0611,577.04808 354.36475,577.41559 C 354.66829,577.7831 355.29945,578.06273 356.25823,578.25447 L 356.25823,579.54874 L 341.20629,579.54874 L 341.20629,578.25447 C 342.19693,578.06273 342.86005,577.77512 343.19565,577.39162 C 343.53115,577.00813 343.69893,576.35301 343.69898,575.42624 L 343.69898,561.09335 L 320.01855,561.09335 L 320.01855,575.42624 z M 384.63637,575.42624 C 384.63636,576.35301 384.80413,577.00813 385.1397,577.39162 C 385.47523,577.77512 386.12237,578.06273 387.08112,578.25447 L 387.08112,579.54874 L 372.07712,579.54874 L 372.07712,578.25447 C 373.00388,578.06273 373.62704,577.7831 373.94663,577.41559 C 374.26619,577.04808 374.42598,576.38496 374.42599,575.42624 L 374.42599,541.34369 C 374.42598,540.38501 374.26619,539.7219 373.94663,539.35435 C 373.62704,538.98688 373.00388,538.70725 372.07712,538.51546 L 372.07712,537.22119 L 387.08112,537.22119 L 387.08112,538.51546 C 386.12237,538.70725 385.47523,538.99486 385.1397,539.37831 C 384.80413,539.76184 384.63636,540.41697 384.63637,541.34369 L 384.63637,575.42624 z M 415.31549,575.42624 C 415.31547,576.35301 415.48324,577.00813 415.81881,577.39162 C 416.15434,577.77512 416.80149,578.06273 417.76023,578.25447 L 417.76023,579.54874 L 402.75624,579.54874 L 402.75624,578.25447 C 403.68299,578.06273 404.30616,577.7831 404.62574,577.41559 C 404.94531,577.04808 405.10509,576.38496 405.1051,575.42624 L 405.1051,541.34369 C 405.10509,540.38501 404.94531,539.7219 404.62574,539.35435 C 404.30616,538.98688 403.68299,538.70725 402.75624,538.51546 L 402.75624,537.22119 L 430.94265,537.22119 C 436.56711,537.22123 440.92929,538.29979 444.0292,540.45687 C 447.12901,542.61404 448.67894,545.62601 448.679,549.49283 C 448.67894,552.72054 447.68826,555.373 445.70696,557.45021 C 443.72555,559.52747 440.80145,560.9975 436.93466,561.86033 L 445.17966,573.36499 C 445.85071,574.32372 446.61769,575.15461 447.4806,575.85766 C 448.34339,576.56073 449.6057,577.35966 451.26755,578.25447 L 451.26755,579.54874 L 433.48326,579.54874 L 433.48326,578.30241 C 434.18629,578.17458 434.72157,577.96686 435.08912,577.67924 C 435.45659,577.39162 435.64034,577.04009 435.64038,576.62465 C 435.64034,576.52878 435.51252,576.2092 435.2569,575.66592 C 435.0012,575.12265 434.72956,574.64329 434.44198,574.22784 L 426.10111,562.29176 L 415.31549,562.29176 L 415.31549,575.42624 z M 427.10776,544.89096 L 415.31549,544.89096 L 415.31549,554.52611 L 427.49125,554.52611 C 431.23022,554.52614 433.99454,554.12667 435.78419,553.32771 C 437.57376,552.5288 438.46857,551.28246 438.46861,549.58869 C 438.46857,547.9589 437.58974,546.76849 435.83213,546.01745 C 434.07444,545.26649 431.16631,544.89099 427.10776,544.89096 L 427.10776,544.89096 z M 477.05715,571.59135 L 486.78818,571.59135 C 491.70958,571.59136 495.45658,570.46487 498.02919,568.21187 C 500.60171,565.95888 501.888,562.67526 501.88804,558.361 C 501.888,554.01482 500.6177,550.74718 498.07712,548.55807 C 495.53647,546.36902 491.77349,545.27448 486.78818,545.27445 L 477.05715,545.27445 L 477.05715,571.59135 z M 486.16501,537.22119 C 495.24086,537.22123 501.92794,538.93894 506.22625,542.37431 C 510.52447,545.80977 512.6736,551.13866 512.67366,558.361 C 512.6736,565.58338 510.52447,570.92026 506.22625,574.37165 C 501.92794,577.82304 495.24086,579.54874 486.16501,579.54874 L 464.4979,579.54874 L 464.4979,578.25447 C 465.42465,578.06273 466.04782,577.7831 466.36741,577.41559 C 466.68697,577.04808 466.84676,576.38496 466.84677,575.42624 L 466.84677,541.34369 C 466.84676,540.38501 466.68697,539.7219 466.36741,539.35435 C 466.04782,538.98688 465.42465,538.70725 464.4979,538.51546 L 464.4979,537.22119 L 486.16501,537.22119 z M 557.0145,579.54874 L 557.0145,578.25447 C 558.03713,577.99881 558.70025,577.68723 559.00386,577.31972 C 559.30744,576.95221 559.45924,576.32105 559.45925,575.42624 L 559.45925,532.13996 C 559.45924,531.18129 559.29945,530.51818 558.97988,530.15062 C 558.6603,529.78316 558.00518,529.48755 557.0145,529.2638 L 557.0145,528.01746 L 591.86403,528.01746 C 597.68023,528.01751 602.21018,529.17596 605.45391,531.49282 C 608.69753,533.80978 610.31936,537.02949 610.31942,541.15195 C 610.31936,543.51683 609.73614,545.58606 608.56976,547.35967 C 607.40326,549.13333 605.63761,550.62734 603.27282,551.84169 C 606.21285,553.31176 608.38595,555.06941 609.79213,557.11466 C 611.19819,559.15995 611.90126,561.60469 611.90132,564.44888 C 611.90126,569.21054 610.05572,572.91759 606.3647,575.57005 C 602.67356,578.22251 597.45653,579.54874 590.71357,579.54874 L 557.0145,579.54874 z M 587.64566,556.77911 L 570.77216,556.77911 L 570.77216,570.82438 L 587.26217,570.82438 C 592.43923,570.82439 595.99448,570.29709 597.92795,569.24249 C 599.86132,568.18791 600.82803,566.38232 600.82809,563.82571 C 600.82803,561.36501 599.78941,559.57539 597.71224,558.45687 C 595.63496,557.33839 592.27944,556.77913 587.64566,556.77911 L 587.64566,556.77911 z M 588.93993,536.35834 L 570.77216,536.35834 L 570.77216,547.62331 L 590.33008,547.62331 C 593.4299,547.62335 595.72285,547.16796 597.20891,546.25714 C 598.69487,545.34638 599.43788,543.94825 599.43794,542.06273 C 599.43788,539.95359 598.66292,538.47556 597.11303,537.62865 C 595.56306,536.78182 592.8387,536.35838 588.93993,536.35834 L 588.93993,536.35834 z M 644.88132,549.30108 L 638.31408,562.86699 L 651.64032,562.86699 L 644.88132,549.30108 z M 639.56042,542.54209 C 639.68824,542.28647 639.79209,542.03081 639.87201,541.77512 C 639.95188,541.5195 639.99183,541.27982 639.99185,541.05607 C 639.99183,540.44892 639.76813,539.9376 639.32074,539.52212 C 638.87332,539.10671 638.20222,538.75518 637.30743,538.46752 L 637.30743,537.22119 L 653.6057,537.22119 L 653.6057,538.51546 C 652.67889,538.83507 652.02377,539.16264 651.64032,539.49815 C 651.25679,539.83375 651.06505,540.25718 651.06508,540.76846 C 651.06505,540.9922 651.09701,541.22389 651.16095,541.46353 C 651.22484,541.70325 651.35266,542.06277 651.54444,542.54209 L 667.07574,573.26912 C 668.03441,575.15461 668.83334,576.39296 669.47253,576.98417 C 670.11163,577.57538 670.91057,577.99881 671.86934,578.25447 L 671.86934,579.54874 L 655.37933,579.54874 L 655.37933,578.25447 C 656.30605,577.96686 656.96119,577.64728 657.34471,577.29575 C 657.72816,576.94422 657.9199,576.5128 657.91994,576.00148 C 657.9199,575.77778 657.88795,575.5381 657.82407,575.28243 C 657.76011,575.02678 657.63228,574.67525 657.44058,574.22784 L 654.8041,568.95487 L 635.24617,568.95487 L 632.80144,574.22784 C 632.60968,574.67525 632.48184,575.02678 632.41795,575.28243 C 632.35402,575.5381 632.32207,575.77778 632.32207,576.00148 C 632.32207,576.54475 632.50582,576.98417 632.87334,577.31972 C 633.24084,577.65527 633.872,577.96686 634.76682,578.25447 L 634.76682,579.54874 L 619.95457,579.54874 L 619.95457,578.25447 C 621.68027,577.77512 623.11835,576.32105 624.26882,573.89229 C 624.39664,573.60468 624.49251,573.39695 624.55643,573.26912 L 639.56042,542.54209 z M 719.85338,564.25714 L 719.85338,541.43956 C 719.85333,540.48088 719.67757,539.80179 719.32608,539.40228 C 718.97451,539.00285 718.31938,538.70725 717.3607,538.51546 L 717.3607,537.22119 L 731.02248,537.22119 L 731.02248,538.51546 C 730.09567,538.70725 729.4725,538.99486 729.15298,539.37831 C 728.83335,539.76184 728.67356,540.44892 728.67362,541.43956 L 728.67362,575.42624 C 728.67356,576.38496 728.83335,577.04808 729.15298,577.41559 C 729.4725,577.7831 730.09567,578.06273 731.02248,578.25447 L 731.02248,579.54874 L 715.635,579.54874 L 715.635,578.25447 C 716.24215,578.12665 716.72152,577.92691 717.07309,577.65527 C 717.42458,577.38364 717.60034,577.10401 717.60038,576.81639 C 717.60034,576.62465 717.54442,576.42491 717.4326,576.21719 C 717.32071,576.00947 717.16891,575.80973 716.97721,575.61799 L 692.43394,551.36233 L 692.43394,575.42624 C 692.43393,576.35301 692.6017,577.00813 692.93727,577.39162 C 693.2728,577.77512 693.91994,578.06273 694.87868,578.25447 L 694.87868,579.54874 L 681.26484,579.54874 L 681.26484,578.25447 C 682.19159,578.06273 682.81476,577.7831 683.13434,577.41559 C 683.45391,577.04808 683.6137,576.38496 683.6137,575.42624 L 683.6137,541.34369 C 683.6137,540.38501 683.45391,539.7219 683.13434,539.35435 C 682.81476,538.98688 682.19159,538.70725 681.26484,538.51546 L 681.26484,537.22119 L 697.65897,537.22119 L 697.65897,538.46752 C 697.05176,538.65931 696.60436,538.86704 696.31677,539.09069 C 696.02912,539.31444 695.88532,539.58607 695.88534,539.90561 C 695.88532,540.06544 695.93326,540.23321 696.02915,540.40894 C 696.125,540.58475 696.33272,540.83241 696.65232,541.15195 L 719.85338,564.25714 z M 759.30478,575.42624 C 759.30476,576.35301 759.47253,577.00813 759.80811,577.39162 C 760.14364,577.77512 760.79077,578.06273 761.74952,578.25447 L 761.74952,579.54874 L 746.74553,579.54874 L 746.74553,578.25447 C 747.67228,578.06273 748.29545,577.7831 748.61504,577.41559 C 748.9346,577.04808 749.09438,576.38496 749.0944,575.42624 L 749.0944,541.34369 C 749.09438,540.38501 748.9346,539.7219 748.61504,539.35435 C 748.29545,538.98688 747.67228,538.70725 746.74553,538.51546 L 746.74553,537.22119 L 761.74952,537.22119 L 761.74952,538.51546 C 760.79077,538.70725 760.14364,538.99486 759.80811,539.37831 C 759.47253,539.76184 759.30476,540.41697 759.30478,541.34369 L 759.30478,554.81373 L 774.93194,542.54209 C 775.63497,542.03081 776.08237,541.62336 776.27415,541.31972 C 776.46585,541.01616 776.56173,540.67262 776.56177,540.2891 C 776.56173,539.90565 776.354,539.54613 775.9386,539.21053 C 775.52312,538.87502 774.97984,538.64333 774.30877,538.51546 L 774.30877,537.22119 L 794.34605,537.22119 L 794.34605,538.51546 C 791.40592,540.17729 788.70552,542.03081 786.24486,544.07605 C 785.95719,544.29978 785.78142,544.4436 785.71756,544.50747 L 772.96656,554.33437 L 789.3607,573.36499 C 790.12763,574.2598 791.02243,575.09868 792.04512,575.88164 C 793.06771,576.66459 794.33002,577.45554 795.83207,578.25447 L 795.83207,579.54874 L 777.18493,579.54874 L 777.18493,578.30241 C 777.856,578.17458 778.36732,577.97485 778.71889,577.7032 C 779.07039,577.43157 779.24615,577.07205 779.24619,576.62465 C 779.24615,576.33704 779.15028,576.04142 778.95857,575.73782 C 778.76678,575.43424 778.36732,574.93091 777.76017,574.22784 L 765.5844,560.2305 L 759.30478,565.02411 L 759.30478,575.42624 z"
       id="text4492"
       style="font-size:1585.08581543px;font-style:normal;font-weight:normal;line-height:125%;fill:#0f0f89;fill-opacity:1;stroke:none;stroke-width:1px;stroke-linecap:butt;stroke-linejoin:miter;stroke-opacity:1;font-family:Bitstream Vera Sans" />
    <path
       d="M 284.64667,345.62882 L 421.91828,345.66084 L 463.46792,413.68506 L 463.46792,495.16038 L 320.40887,494.72729 L 284.64667,436.82646 L 284.64667,345.62882 z"
       id="path4512"
       style="fill:#ffffff;fill-opacity:1;stroke:#a90000;stroke-width:0;stroke-linejoin:miter;stroke-miterlimit:4;stroke-opacity:1" />
    <rect
       width="164.0406"
       height="137.17188"
       ry="38.181862"
       x="292.03699"
       y="351.80865"
       id="rect4496"
       style="opacity:1;fill:#0f0f89;fill-opacity:1;stroke:#a90000;stroke-width:0;stroke-linejoin:miter;stroke-miterlimit:4;stroke-dasharray:none;stroke-opacity:1" />
    <path
       d="M 292.037,351.80866 L 417.96228,351.83804 L 456.07759,414.23965 L 456.07759,488.98054 L 324.84323,488.58324 L 292.037,435.46827 L 292.037,351.80866 z"
       id="rect4498"
       style="fill:#0f0f89;fill-opacity:1;stroke:#a90000;stroke-width:0;stroke-linejoin:miter;stroke-miterlimit:4;stroke-opacity:1" />
    <rect
       width="49.805069"
       height="28.191549"
       ry="0"
       x="305.32007"
       y="365.13983"
       id="rect5035"
       style="opacity:1;fill:#ffffff;fill-opacity:1;stroke:#a90000;stroke-width:0;stroke-linejoin:miter;stroke-miterlimit:4;stroke-dasharray:none;stroke-opacity:1" />
    <path
       d="M 310.95839,398.02996 L 346.66769,398.02996 C 360.49599,402.22175 368.24167,431.01134 347.60741,438.43785 L 309.07896,436.55841 C 333.48867,426.99723 324.0777,405.53172 310.95839,398.02996 z"
       id="path5037"
       style="fill:#ffffff;fill-rule:evenodd;stroke:#000000;stroke-width:0;stroke-linecap:butt;stroke-linejoin:miter;stroke-miterlimit:4;stroke-dasharray:none;stroke-opacity:1" />
    <path
       d="M 392.71389,399.9094 C 408.72904,412.12573 411.72775,424.34208 392.71389,436.55841 C 406.44116,449.91869 409.01148,462.34922 392.71389,473.20743 C 454.1815,484.00918 448.12449,440.62883 424.66431,436.55841 C 445.42828,432.73065 445.50022,414.96766 433.79092,404.6891 C 425.23256,397.17647 410.38045,394.53758 392.71389,399.9094 z"
       id="path5039"
       style="fill:#ffffff;fill-rule:evenodd;stroke:#000000;stroke-width:0;stroke-linecap:butt;stroke-linejoin:miter;stroke-miterlimit:4;stroke-dasharray:none;stroke-opacity:1" />
    <rect
       width="5.63831"
       height="113.96579"
       x="470.23083"
       y="372.38138"
       transform="matrix(1,0,-0.2308773,0.9729829,0,0)"
       id="rect5041"
       style="opacity:1;fill:#ffffff;fill-opacity:1;stroke:#a90000;stroke-width:0;stroke-linejoin:miter;stroke-miterlimit:4;stroke-dasharray:none;stroke-opacity:1" />
  </g>
</svg>
